<?xml version="1.0" encoding="UTF-8"?>
<!DOCTYPE svg PUBLIC "-//W3C//DTD SVG 1.1//EN" "http://www.w3.org/Graphics/SVG/1.1/DTD/svg11.dtd">
<svg xmlns="http://www.w3.org/2000/svg" viewBox="0 0 554 554" version="1.1" width="1041.277" height="554.141" style="shape-rendering:geometricPrecision; text-rendering:geometricPrecision; image-rendering:optimizeQuality; fill-rule:evenodd; clip-rule:evenodd" xmlns:xlink="http://www.w3.org/1999/xlink">
<g><path style="opacity:1" fill="#688dd4" d="M 155.5,-0.5 C 212.5,-0.5 269.5,-0.5 326.5,-0.5C 326.667,20.8359 326.5,42.1693 326,63.5C 325.5,64 325,64.5 324.5,65C 267.834,65.5 211.168,65.6667 154.5,65.5C 154.188,43.4545 154.522,21.4545 155.5,-0.5 Z"/></g>
<g><path style="opacity:1" fill="#4173c8" d="M 326.5,-0.5 C 334.167,-0.5 341.833,-0.5 349.5,-0.5C 350.826,29.1667 350.826,58.8334 349.5,88.5C 348.624,89.2508 347.624,89.7508 346.5,90C 317.835,90.5 289.169,90.6666 260.5,90.5C 255.167,89.1667 249.833,89.1667 244.5,90.5C 215.831,90.6666 187.165,90.5 158.5,90C 156.939,89.6824 155.772,88.8491 155,87.5C 154.5,80.1742 154.334,72.8409 154.5,65.5C 211.168,65.6667 267.834,65.5 324.5,65C 325,64.5 325.5,64 326,63.5C 326.5,42.1693 326.667,20.8359 326.5,-0.5 Z"/></g>
<g><path style="opacity:0.954" fill="#698ed5" d="M 260.5,90.5 C 260.333,101.172 260.5,111.839 261,122.5C 268.39,113.814 274.224,114.648 278.5,125C 273.855,133.325 268.022,140.825 261,147.5C 260.5,154.158 260.334,160.825 260.5,167.5C 255.167,163.5 249.833,163.5 244.5,167.5C 244.666,160.825 244.5,154.158 244,147.5C 236.978,140.825 231.145,133.325 226.5,125C 230.776,114.648 236.61,113.814 244,122.5C 244.5,111.839 244.667,101.172 244.5,90.5C 249.833,89.1667 255.167,89.1667 260.5,90.5 Z"/></g>
<g><path style="opacity:0.988" fill="#fa73c3" d="M 260.5,167.5 C 272.5,178.833 284.167,190.5 295.5,202.5C 274.868,222.632 254.368,242.965 234,263.5C 233.517,264.448 233.351,265.448 233.5,266.5C 221.167,254.833 209.167,242.833 197.5,230.5C 193.5,225.167 193.5,219.833 197.5,214.5C 212.833,198.5 228.5,182.833 244.5,167.5C 249.833,163.5 255.167,163.5 260.5,167.5 Z"/></g>
<g><path style="opacity:1" fill="#dd5ca2" d="M 295.5,202.5 C 299.833,206.5 304.167,210.5 308.5,214.5C 312.658,220.067 312.325,225.401 307.5,230.5C 292.167,246.5 276.5,262.167 260.5,277.5C 255.167,281.5 249.833,281.5 244.5,277.5C 240.5,274.167 236.833,270.5 233.5,266.5C 233.351,265.448 233.517,264.448 234,263.5C 254.368,242.965 274.868,222.632 295.5,202.5 Z"/></g>
<g><path style="opacity:0.946" fill="#698ed5" d="M 197.5,214.5 C 193.5,219.833 193.5,225.167 197.5,230.5C 172.833,230.5 148.167,230.5 123.5,230.5C 123.334,239.173 123.5,247.84 124,256.5C 127.608,250.768 132.441,249.268 138.5,252C 141.769,255.453 142.269,259.286 140,263.5C 133.265,271.177 126.431,278.677 119.5,286C 116.833,286.667 114.167,286.667 111.5,286C 104.294,278.463 97.4604,270.629 91,262.5C 89.1255,254.381 92.2922,250.548 100.5,251C 102.96,252.458 105.127,254.291 107,256.5C 107.333,244.5 107.667,232.5 108,220.5C 108.273,218.671 109.107,217.171 110.5,216C 139.412,214.516 168.412,214.016 197.5,214.5 Z"/></g>
<g><path style="opacity:0.956" fill="#698ed5" d="M 308.5,214.5 C 338.921,214.016 369.254,214.516 399.5,216C 400.701,216.903 401.535,218.069 402,219.5C 402.333,231.833 402.667,244.167 403,256.5C 410.201,247.9 416.034,248.567 420.5,258.5C 420.101,260.197 419.601,261.863 419,263.5C 412.138,271.026 405.305,278.526 398.5,286C 395.833,286.667 393.167,286.667 390.5,286C 384,278.833 377.5,271.667 371,264.5C 367.458,257.245 369.458,252.579 377,250.5C 380.775,251.265 383.775,253.265 386,256.5C 386.5,247.84 386.666,239.173 386.5,230.5C 360.167,230.5 333.833,230.5 307.5,230.5C 312.325,225.401 312.658,220.067 308.5,214.5 Z"/></g>
<g><path style="opacity:0.949" fill="#698ed5" d="M 244.5,277.5 C 249.833,281.5 255.167,281.5 260.5,277.5C 260.333,304.835 260.5,332.169 261,359.5C 268.348,350.907 274.181,351.74 278.5,362C 272.316,371.859 264.983,380.859 256.5,389C 253.833,389.667 251.167,389.667 248.5,389C 240.017,380.859 232.684,371.859 226.5,362C 230.819,351.74 236.652,350.907 244,359.5C 244.5,332.169 244.667,304.835 244.5,277.5 Z"/></g>
<g><path style="opacity:0.993" fill="#fcb042" d="M 155.5,308.5 C 155.667,320.838 155.5,333.171 155,345.5C 152.465,354.702 146.631,360.535 137.5,363C 108.835,363.5 80.1686,363.667 51.5,363.5C 51.3335,351.495 51.5001,339.495 52,327.5C 53.9857,318.182 59.4857,312.015 68.5,309C 97.4981,308.5 126.498,308.333 155.5,308.5 Z"/></g>
<g><path style="opacity:1" fill="#fa9802" d="M 155.5,308.5 C 167.55,307.939 175.716,313.272 180,324.5C 181.982,340.829 181.982,357.163 180,373.5C 177.427,381.739 171.927,386.905 163.5,389C 132.167,389.667 100.833,389.667 69.5,389C 57.4809,384.808 51.4809,376.308 51.5,363.5C 80.1686,363.667 108.835,363.5 137.5,363C 146.631,360.535 152.465,354.702 155,345.5C 155.5,333.171 155.667,320.838 155.5,308.5 Z"/></g>
<g><path style="opacity:0.998" fill="#fcb142" d="M 433.5,308.5 C 433.667,320.505 433.5,332.505 433,344.5C 430.936,354.231 425.103,360.397 415.5,363C 387.169,363.5 358.835,363.667 330.5,363.5C 330.828,352.654 330.494,341.987 329.5,331.5C 330.457,320.411 336.124,312.911 346.5,309C 375.498,308.5 404.498,308.333 433.5,308.5 Z"/></g>
<g><path style="opacity:1" fill="#fa9803" d="M 433.5,308.5 C 447.258,307.757 455.758,314.09 459,327.5C 459.937,343.221 459.603,358.888 458,374.5C 455.002,382.164 449.502,386.997 441.5,389C 410.167,389.667 378.833,389.667 347.5,389C 339.099,386.932 333.599,381.766 331,373.5C 329.634,359.541 329.134,345.541 329.5,331.5C 330.494,341.987 330.828,352.654 330.5,363.5C 358.835,363.667 387.169,363.5 415.5,363C 425.103,360.397 430.936,354.231 433,344.5C 433.5,332.505 433.667,320.505 433.5,308.5 Z"/></g>
<g><path style="opacity:0.994" fill="#ffdf7c" d="M 274.5,415.5 C 283.808,440.101 278.475,460.934 258.5,478C 242.127,488.486 224.793,490.319 206.5,483.5C 196.21,456.149 202.876,433.983 226.5,417C 242.401,408.984 258.401,408.484 274.5,415.5 Z"/></g>
<g><path style="opacity:0.999" fill="#ffd064" d="M 274.5,415.5 C 289.097,422.321 298.264,433.655 302,449.5C 306.235,481.382 293.068,502.049 262.5,511.5C 255.833,511.5 249.167,511.5 242.5,511.5C 226.161,507.836 214.161,498.503 206.5,483.5C 224.793,490.319 242.127,488.486 258.5,478C 278.475,460.934 283.808,440.101 274.5,415.5 Z"/></g>
</svg>
