<?xml version="1.0" encoding="UTF-8"?>
<!DOCTYPE svg PUBLIC "-//W3C//DTD SVG 1.1//EN" "http://www.w3.org/Graphics/SVG/1.1/DTD/svg11.dtd">
<svg xmlns="http://www.w3.org/2000/svg" viewBox="0 0 554 554" version="1.1" width="1129" height="663" style="shape-rendering:geometricPrecision; text-rendering:geometricPrecision; image-rendering:optimizeQuality; fill-rule:evenodd; clip-rule:evenodd" xmlns:xlink="http://www.w3.org/1999/xlink">
<g><path style="opacity:1" fill="#78c2a4" d="M 82.5,-0.5 C 91.8333,-0.5 101.167,-0.5 110.5,-0.5C 110.5,0.166667 110.833,0.5 111.5,0.5C 71.2967,11.2046 46.4634,36.8712 37,77.5C 33.4925,133.789 58.6592,169.789 112.5,185.5C 79.1033,189.868 50.6033,180.202 27,156.5C 1.48308,125.381 -3.85026,91.0473 11,53.5C 25.8501,23.4689 49.6835,5.4689 82.5,-0.5 Z"/></g>
<g><path style="opacity:0.999" fill="#ffd064" d="M 400.5,-0.5 C 409.833,-0.5 419.167,-0.5 428.5,-0.5C 428.5,0.166667 428.833,0.5 429.5,0.5C 376.84,16.1222 352.006,51.4555 355,106.5C 363.551,149.217 389.051,175.217 431.5,184.5C 390.009,190.504 357.509,176.17 334,141.5C 314.824,105.463 316.491,70.4628 339,36.5C 354.813,16.3449 375.313,4.01153 400.5,-0.5 Z"/></g>
<g><path style="opacity:0.995" fill="#94d5a3" d="M 111.5,0.5 C 154.099,9.26603 179.933,34.9327 189,77.5C 193.744,120.842 177.578,153.676 140.5,176C 131.509,180.274 122.176,183.441 112.5,185.5C 58.6592,169.789 33.4925,133.789 37,77.5C 46.4634,36.8712 71.2967,11.2046 111.5,0.5 Z"/></g>
<g><path style="opacity:0.996" fill="#fedf7c" d="M 429.5,0.5 C 458.533,5.36842 480.7,20.3684 496,45.5C 515.587,85.1301 511.587,122.13 484,156.5C 469.518,171.491 452.018,180.824 431.5,184.5C 389.051,175.217 363.551,149.217 355,106.5C 352.006,51.4555 376.84,16.1222 429.5,0.5 Z"/></g>
<g><path style="opacity:1" fill="#766f78" d="M 384.5,32.5 C 390.386,31.3435 395.219,33.0102 399,37.5C 400.441,46.0578 400.941,54.7244 400.5,63.5C 416.838,56.9725 432.172,58.8058 446.5,69C 462.527,84.4735 465.693,102.307 456,122.5C 441.606,142.693 422.94,148.026 400,138.5C 390.96,146.158 383.626,144.825 378,134.5C 377.333,103.167 377.333,71.8333 378,40.5C 379.305,37.0386 381.471,34.372 384.5,32.5 Z"/></g>
<g><path style="opacity:1" fill="#756f78" d="M 82.5,52.5 C 88.1764,52.3339 93.8431,52.5006 99.5,53C 103.994,53.6627 108.161,55.1627 112,57.5C 118.047,51.2716 124.38,50.9383 131,56.5C 131.667,57.8333 132.333,59.1667 133,60.5C 133.667,81.8333 133.667,103.167 133,124.5C 127.639,134.671 120.639,136.004 112,128.5C 85.9024,138.913 66.5691,131.58 54,106.5C 47.9894,80.1837 57.4894,62.1837 82.5,52.5 Z"/></g>
<g><path style="opacity:0.971" fill="#746d77" d="M 259.5,53.5 C 263.059,53.4081 266.392,54.2415 269.5,56C 279.333,65.8333 289.167,75.6667 299,85.5C 301.238,91.0155 300.905,96.3488 298,101.5C 288.833,110.667 279.667,119.833 270.5,129C 256.005,134.823 248.838,129.99 249,114.5C 250.061,111.438 251.894,108.938 254.5,107C 242.443,106.915 230.443,106.249 218.5,105C 213.329,102.657 210.995,98.6573 211.5,93C 211.339,86.4924 214.339,82.1591 220.5,80C 231.833,79.6667 243.167,79.3333 254.5,79C 247.435,72.2202 246.768,64.8869 252.5,57C 254.713,55.3838 257.047,54.2172 259.5,53.5 Z"/></g>
<g><path style="opacity:1" fill="#94d4a3" d="M 86.5,74.5 C 106.408,74.2273 113.574,83.5607 108,102.5C 98.6876,113.545 88.6876,114.212 78,104.5C 71.0602,91.6406 73.8936,81.6406 86.5,74.5 Z"/></g>
<g><path style="opacity:1" fill="#fcde7c" d="M 414.5,82.5 C 425.313,81.4889 433.146,85.8223 438,95.5C 439.474,112.023 431.974,120.19 415.5,120C 404.999,116.166 400.165,108.666 401,97.5C 403.263,90.4074 407.763,85.4074 414.5,82.5 Z"/></g>
<g><path style="opacity:0.981" fill="#746d77" d="M 314.5,170.5 C 329.922,170.076 335.089,177.076 330,191.5C 291.5,230 253,268.5 214.5,307C 227.785,306.283 233.285,312.45 231,325.5C 229.5,329 227,331.5 223.5,333C 208.167,333.667 192.833,333.667 177.5,333C 174,331.5 171.5,329 170,325.5C 169.03,309.075 169.364,292.741 171,276.5C 178.045,268.989 185.378,268.656 193,275.5C 194.969,279.232 195.969,283.232 196,287.5C 235.09,247.909 274.59,208.909 314.5,170.5 Z"/></g>
<g><path style="opacity:1" fill="#80b4fb" d="M 112.5,325.5 C 73.8153,335.016 48.982,359.016 38,397.5C 30.6584,446.321 48.825,481.821 92.5,504C 98.846,506.503 105.179,508.67 111.5,510.5C 110.833,510.5 110.5,510.833 110.5,511.5C 101.167,511.5 91.8333,511.5 82.5,511.5C 32.9726,500.298 6.30591,469.298 2.5,418.5C 5.15421,371.031 29.1542,340.531 74.5,327C 87.0823,324.352 99.749,323.852 112.5,325.5 Z"/></g>
<g><path style="opacity:1" fill="#dd5790" d="M 431.5,326.5 C 389.493,335.674 363.993,361.341 355,403.5C 351.733,459.024 376.566,494.691 429.5,510.5C 428.833,510.5 428.5,510.833 428.5,511.5C 419.167,511.5 409.833,511.5 400.5,511.5C 350.737,500.228 324.07,469.061 320.5,418C 323.527,370.895 347.527,340.562 392.5,327C 405.619,323.974 418.619,323.808 431.5,326.5 Z"/></g>
<g><path style="opacity:0.996" fill="#9cc5fa" d="M 112.5,325.5 C 154.525,334.692 180.025,360.359 189,402.5C 194.082,450.034 175.248,484.201 132.5,505C 125.724,507.76 118.724,509.593 111.5,510.5C 105.179,508.67 98.846,506.503 92.5,504C 48.825,481.821 30.6584,446.321 38,397.5C 48.982,359.016 73.8153,335.016 112.5,325.5 Z"/></g>
<g><path style="opacity:0.994" fill="#de74a4" d="M 431.5,326.5 C 473.151,335.318 498.318,360.651 507,402.5C 512.149,443.09 497.983,474.923 464.5,498C 453.612,504.462 441.945,508.628 429.5,510.5C 376.566,494.691 351.733,459.024 355,403.5C 363.993,361.341 389.493,335.674 431.5,326.5 Z"/></g>
<g><path style="opacity:1" fill="#766e78" d="M 436.5,362.5 C 443.271,361.698 448.104,364.365 451,370.5C 451.978,402.894 451.645,435.227 450,467.5C 446.565,472.794 441.732,474.627 435.5,473C 433.359,471.692 431.359,470.192 429.5,468.5C 403.941,479.295 384.441,472.628 371,448.5C 363.115,423.768 370.615,405.268 393.5,393C 405.013,389.373 416.347,389.873 427.5,394.5C 428.332,386.187 428.832,377.853 429,369.5C 430.742,366.254 433.242,363.921 436.5,362.5 Z"/></g>
<g><path style="opacity:1" fill="#756e79" d="M 91.5,374.5 C 104.543,373.17 116.543,376.003 127.5,383C 134.933,387.358 137.1,393.525 134,401.5C 130.457,406.462 125.624,408.296 119.5,407C 115.431,403.937 111.098,401.27 106.5,399C 94.7615,397.118 86.5948,401.618 82,412.5C 80.1981,430.698 88.3647,438.865 106.5,437C 112.077,433.907 117.744,431.073 123.5,428.5C 135.007,431.181 138.174,437.848 133,448.5C 121.095,459.957 106.928,464.123 90.5,461C 65.8347,452.186 55.0014,434.686 58,408.5C 63.3501,391.317 74.5168,379.984 91.5,374.5 Z"/></g>
<g><path style="opacity:0.971" fill="#746d77" d="M 257.5,379.5 C 262.121,378.993 266.454,379.826 270.5,382C 279.667,391.167 288.833,400.333 298,409.5C 300.905,414.651 301.238,419.985 299,425.5C 289.167,435.333 279.333,445.167 269.5,455C 259.985,459.423 253.151,456.923 249,447.5C 247.855,441.268 249.688,436.101 254.5,432C 243.167,431.667 231.833,431.333 220.5,431C 211.534,426.714 209.034,419.881 213,410.5C 214.543,408.622 216.376,407.122 218.5,406C 230.443,404.751 242.443,404.085 254.5,404C 248.076,398.442 246.909,391.942 251,384.5C 252.805,382.174 254.972,380.508 257.5,379.5 Z"/></g>
<g><path style="opacity:1" fill="#dd74a4" d="M 403.5,413.5 C 420.664,411.835 428.831,419.502 428,436.5C 421.049,451.149 410.549,454.315 396.5,446C 386.665,432.45 388.998,421.617 403.5,413.5 Z"/></g>
</svg>
