<?xml version="1.0" encoding="UTF-8"?>
<!DOCTYPE svg PUBLIC "-//W3C//DTD SVG 1.1//EN" "http://www.w3.org/Graphics/SVG/1.1/DTD/svg11.dtd">
<svg xmlns="http://www.w3.org/2000/svg" version="1.1" width="512px" height="512px" style="shape-rendering:geometricPrecision; text-rendering:geometricPrecision; image-rendering:optimizeQuality; fill-rule:evenodd; clip-rule:evenodd" xmlns:xlink="http://www.w3.org/1999/xlink">
<g><path style="opacity:0.958" fill="#010100" d="M 251.5,15.5 C 255.257,15.0708 258.757,15.7375 262,17.5C 269.167,31.8333 276.333,46.1667 283.5,60.5C 299.101,63.3241 314.767,65.8241 330.5,68C 336.543,70.8844 338.043,75.3844 335,81.5C 324.304,92.53 313.304,103.197 302,113.5C 303.507,129.216 305.674,144.882 308.5,160.5C 308.355,168.425 304.355,171.259 296.5,169C 282.833,161.833 269.167,154.667 255.5,147.5C 241.833,154.667 228.167,161.833 214.5,169C 203.871,170.644 200.038,166.144 203,155.5C 205.877,141.58 207.877,127.58 209,113.5C 197.696,103.197 186.696,92.53 176,81.5C 172.957,75.3844 174.457,70.8844 180.5,68C 196.233,65.8241 211.899,63.3241 227.5,60.5C 234.667,46.1667 241.833,31.8333 249,17.5C 249.995,16.9341 250.828,16.2674 251.5,15.5 Z"/></g>
<g><path style="opacity:1" fill="#f6c54e" d="M 254.5,42.5 C 255.376,42.3691 256.043,42.7025 256.5,43.5C 261.706,54.0779 267.039,64.5779 272.5,75C 284.903,78.3464 297.57,80.6797 310.5,82C 301.667,90.8333 292.833,99.6667 284,108.5C 285.391,120.182 287.224,131.849 289.5,143.5C 289.167,144.5 288.833,145.5 288.5,146.5C 277.827,140.329 266.827,134.996 255.5,130.5C 244.173,134.996 233.173,140.329 222.5,146.5C 222.167,145.5 221.833,144.5 221.5,143.5C 224.205,131.614 225.705,119.614 226,107.5C 217.5,99 209,90.5 200.5,82C 213.245,79.9913 225.911,77.658 238.5,75C 244.244,64.3448 249.578,53.5115 254.5,42.5 Z"/></g>
<g><path style="opacity:0.955" fill="#010100" d="M 120.5,103.5 C 125.535,102.502 129.702,103.835 133,107.5C 137.311,116.771 141.811,125.938 146.5,135C 157.151,136.76 167.817,138.426 178.5,140C 180.286,140.785 181.786,141.951 183,143.5C 183.667,146.5 183.667,149.5 183,152.5C 174.79,160.375 166.956,168.542 159.5,177C 162.365,188.353 163.865,199.853 164,211.5C 160.95,215.13 157.117,216.297 152.5,215C 143.412,210.039 134.246,205.206 125,200.5C 116.07,205.716 106.904,210.549 97.5,215C 92.3747,216.569 88.5414,215.069 86,210.5C 87.3329,198.501 88.6662,186.501 90,174.5C 82.3637,167.865 75.0304,160.865 68,153.5C 65.2243,147.866 66.391,143.366 71.5,140C 82.1827,138.426 92.8493,136.76 103.5,135C 108.798,124.234 114.464,113.734 120.5,103.5 Z"/></g>
<g><path style="opacity:0.955" fill="#010100" d="M 381.5,103.5 C 384.518,103.335 387.518,103.502 390.5,104C 396.675,114.013 402.341,124.346 407.5,135C 418.151,136.76 428.817,138.426 439.5,140C 444.609,143.366 445.776,147.866 443,153.5C 435.97,160.865 428.636,167.865 421,174.5C 421.786,185.388 423.286,196.221 425.5,207C 424.602,214.125 420.602,216.792 413.5,215C 404.096,210.549 394.93,205.716 386,200.5C 376.754,205.206 367.588,210.039 358.5,215C 348.277,216.104 344.444,211.604 347,201.5C 348.447,193.318 349.947,185.152 351.5,177C 344.044,168.542 336.21,160.375 328,152.5C 327.333,149.5 327.333,146.5 328,143.5C 329.214,141.951 330.714,140.785 332.5,140C 343.183,138.426 353.849,136.76 364.5,135C 369.4,126.033 373.9,116.867 378,107.5C 379.376,106.295 380.542,104.962 381.5,103.5 Z"/></g>
<g><path style="opacity:1" fill="#f4c34e" d="M 124.5,130.5 C 128.266,136.521 131.933,142.687 135.5,149C 136.672,149.419 137.672,150.085 138.5,151C 144.938,151.566 151.271,152.566 157.5,154C 152.3,158.865 147.467,164.032 143,169.5C 143.559,177.185 144.226,184.852 145,192.5C 138.744,188.786 132.244,185.786 125.5,183.5C 118.368,185.398 111.702,188.398 105.5,192.5C 105.167,191.833 104.833,191.167 104.5,190.5C 106.538,183.278 107.372,175.945 107,168.5C 102.167,163.667 97.3333,158.833 92.5,154C 99.4284,152.424 106.428,151.091 113.5,150C 117.812,143.878 121.478,137.378 124.5,130.5 Z"/></g>
<g><path style="opacity:1" fill="#f5c44e" d="M 385.5,130.5 C 389.349,137.02 393.349,143.52 397.5,150C 404.384,151.794 411.384,153.128 418.5,154C 413.667,158.833 408.833,163.667 404,168.5C 403.628,175.945 404.462,183.278 406.5,190.5C 406.167,191.167 405.833,191.833 405.5,192.5C 399.298,188.398 392.632,185.398 385.5,183.5C 378.756,185.786 372.256,188.786 366,192.5C 366.774,184.852 367.441,177.185 368,169.5C 363.533,164.032 358.7,158.865 353.5,154C 359.285,152.216 365.285,151.216 371.5,151C 372.833,150.333 374.167,149.667 375.5,149C 379.227,143.046 382.561,136.879 385.5,130.5 Z"/></g>
<g><path style="opacity:0.996" fill="#000000" d="M 391.5,391.5 C 388.833,391.5 386.167,391.5 383.5,391.5C 383.5,348.833 383.5,306.167 383.5,263.5C 364.833,263.5 346.167,263.5 327.5,263.5C 327.5,324.833 327.5,386.167 327.5,447.5C 346.167,447.5 364.833,447.5 383.5,447.5C 383.5,434.167 383.5,420.833 383.5,407.5C 386.167,407.5 388.833,407.5 391.5,407.5C 394.167,407.5 396.833,407.5 399.5,407.5C 399.333,420.171 399.5,432.838 400,445.5C 404.753,442.416 409.92,440.416 415.5,439.5C 415.334,431.493 415.5,423.493 416,415.5C 422.366,396.719 435.533,388.719 455.5,391.5C 475.467,388.719 488.634,396.719 495,415.5C 495.667,440.833 495.667,466.167 495,491.5C 494.5,493.333 493.333,494.5 491.5,495C 334.167,495.667 176.833,495.667 19.5,495C 17.6667,494.5 16.5,493.333 16,491.5C 15.3333,466.167 15.3333,440.833 16,415.5C 22.3663,396.719 35.5329,388.719 55.5,391.5C 75.4671,388.719 88.6337,396.719 95,415.5C 95.4997,423.493 95.6664,431.493 95.5,439.5C 101.08,440.416 106.247,442.416 111,445.5C 111.5,403.501 111.667,361.501 111.5,319.5C 114.167,319.5 116.833,319.5 119.5,319.5C 122.167,319.5 124.833,319.5 127.5,319.5C 127.5,362.167 127.5,404.833 127.5,447.5C 146.167,447.5 164.833,447.5 183.5,447.5C 183.5,386.167 183.5,324.833 183.5,263.5C 164.833,263.5 146.167,263.5 127.5,263.5C 127.5,276.833 127.5,290.167 127.5,303.5C 124.833,303.5 122.167,303.5 119.5,303.5C 116.833,303.5 114.167,303.5 111.5,303.5C 111.333,286.163 111.5,268.83 112,251.5C 112.374,250.584 112.874,249.75 113.5,249C 136.743,247.52 160.076,247.02 183.5,247.5C 183.032,232.07 183.532,216.737 185,201.5C 185.75,200.874 186.584,200.374 187.5,200C 196.827,199.5 206.161,199.334 215.5,199.5C 215.334,192.825 215.5,186.158 216,179.5C 216.374,178.584 216.874,177.75 217.5,177C 230.075,175.851 242.742,175.351 255.5,175.5C 268.258,175.351 280.925,175.851 293.5,177C 294.126,177.75 294.626,178.584 295,179.5C 295.5,186.158 295.666,192.825 295.5,199.5C 304.839,199.334 314.173,199.5 323.5,200C 324.416,200.374 325.25,200.874 326,201.5C 327.468,216.737 327.968,232.07 327.5,247.5C 350.169,247.333 372.836,247.5 395.5,248C 396.416,248.374 397.25,248.874 398,249.5C 399.49,296.749 399.99,344.082 399.5,391.5C 396.833,391.5 394.167,391.5 391.5,391.5 Z"/></g>
<g><path style="opacity:1" fill="#f9c84f" d="M 231.5,191.5 C 247.5,191.5 263.5,191.5 279.5,191.5C 279.5,202.167 279.5,212.833 279.5,223.5C 263.5,223.5 247.5,223.5 231.5,223.5C 231.5,212.833 231.5,202.167 231.5,191.5 Z"/></g>
<g><path style="opacity:0.952" fill="#000000" d="M 53.5,207.5 C 56.5184,207.335 59.5184,207.502 62.5,208C 67.0058,214.674 71.0058,221.674 74.5,229C 81.8779,230.149 89.2112,231.482 96.5,233C 101.518,236.722 102.351,241.222 99,246.5C 94.3333,251.167 89.6667,255.833 85,260.5C 85.7118,267.12 86.5451,273.786 87.5,280.5C 86.9741,287.947 82.9741,290.78 75.5,289C 69.7466,285.706 63.9132,282.54 58,279.5C 52.0868,282.54 46.2534,285.706 40.5,289C 30.2772,290.104 26.4439,285.604 29,275.5C 29.7257,270.813 30.559,266.146 31.5,261.5C 26.876,256.375 22.0427,251.375 17,246.5C 15.5167,243.298 15.1834,239.964 16,236.5C 16.5,234.667 17.6667,233.5 19.5,233C 26.8292,231.667 34.1625,230.334 41.5,229C 45.1319,221.564 49.1319,214.397 53.5,207.5 Z"/></g>
<g><path style="opacity:0.952" fill="#000000" d="M 448.5,207.5 C 451.518,207.335 454.518,207.502 457.5,208C 462.006,214.674 466.006,221.674 469.5,229C 477.667,230.022 485.667,231.688 493.5,234C 495.942,238.052 496.109,242.219 494,246.5C 488.957,251.375 484.124,256.375 479.5,261.5C 481.54,269.397 482.373,277.397 482,285.5C 478.95,289.13 475.117,290.297 470.5,289C 464.747,285.706 458.913,282.54 453,279.5C 447.087,282.54 441.253,285.706 435.5,289C 425.277,290.104 421.444,285.604 424,275.5C 424.672,270.965 425.506,266.465 426.5,262C 422.046,256.544 417.213,251.377 412,246.5C 408.649,241.222 409.482,236.722 414.5,233C 421.829,231.667 429.163,230.334 436.5,229C 440.132,221.564 444.132,214.397 448.5,207.5 Z"/></g>
<g><path style="opacity:1" fill="#f95c3e" d="M 199.5,215.5 C 204.833,215.5 210.167,215.5 215.5,215.5C 215.334,221.509 215.501,227.509 216,233.5C 216.273,235.329 217.107,236.829 218.5,238C 230.575,239.148 242.741,239.648 255,239.5C 267.567,239.638 280.067,239.138 292.5,238C 293.893,236.829 294.727,235.329 295,233.5C 295.499,227.509 295.666,221.509 295.5,215.5C 300.833,215.5 306.167,215.5 311.5,215.5C 311.5,303.5 311.5,391.5 311.5,479.5C 303.5,479.5 295.5,479.5 287.5,479.5C 287.976,459.075 287.476,438.741 286,418.5C 284.829,417.107 283.329,416.273 281.5,416C 263.833,415.333 246.167,415.333 228.5,416C 226.333,416.833 224.833,418.333 224,420.5C 223.5,440.164 223.333,459.831 223.5,479.5C 215.5,479.5 207.5,479.5 199.5,479.5C 199.5,391.5 199.5,303.5 199.5,215.5 Z"/></g>
<g><path style="opacity:1" fill="#f1c14d" d="M 57.5,234.5 C 59.6902,237.688 62.0235,240.855 64.5,244C 67.7699,244.995 71.1033,245.828 74.5,246.5C 72.144,249.022 69.9773,251.688 68,254.5C 68,258.5 68,262.5 68,266.5C 61.3333,261.167 54.6667,261.167 48,266.5C 48,262.5 48,258.5 48,254.5C 46.0227,251.688 43.856,249.022 41.5,246.5C 50.0012,246.66 55.3345,242.66 57.5,234.5 Z"/></g>
<g><path style="opacity:1" fill="#f1c14d" d="M 452.5,234.5 C 454.69,237.688 457.024,240.855 459.5,244C 462.77,244.995 466.103,245.828 469.5,246.5C 467.144,249.022 464.977,251.688 463,254.5C 463,258.5 463,262.5 463,266.5C 456.333,261.167 449.667,261.167 443,266.5C 443,262.5 443,258.5 443,254.5C 441.023,251.688 438.856,249.022 436.5,246.5C 445.001,246.66 450.334,242.66 452.5,234.5 Z"/></g>
<g><path style="opacity:1" fill="#000000" d="M 215.5,255.5 C 220.833,255.5 226.167,255.5 231.5,255.5C 231.5,260.833 231.5,266.167 231.5,271.5C 226.167,271.5 220.833,271.5 215.5,271.5C 215.5,266.167 215.5,260.833 215.5,255.5 Z"/></g>
<g><path style="opacity:1" fill="#000000" d="M 247.5,255.5 C 252.833,255.5 258.167,255.5 263.5,255.5C 263.5,260.833 263.5,266.167 263.5,271.5C 258.167,271.5 252.833,271.5 247.5,271.5C 247.5,266.167 247.5,260.833 247.5,255.5 Z"/></g>
<g><path style="opacity:1" fill="#000000" d="M 279.5,255.5 C 284.833,255.5 290.167,255.5 295.5,255.5C 295.5,260.833 295.5,266.167 295.5,271.5C 290.167,271.5 284.833,271.5 279.5,271.5C 279.5,266.167 279.5,260.833 279.5,255.5 Z"/></g>
<g><path style="opacity:1" fill="#f9c84f" d="M 119.5,319.5 C 119.5,314.167 119.5,308.833 119.5,303.5C 122.167,303.5 124.833,303.5 127.5,303.5C 127.5,290.167 127.5,276.833 127.5,263.5C 146.167,263.5 164.833,263.5 183.5,263.5C 183.5,324.833 183.5,386.167 183.5,447.5C 164.833,447.5 146.167,447.5 127.5,447.5C 127.5,404.833 127.5,362.167 127.5,319.5C 124.833,319.5 122.167,319.5 119.5,319.5 Z"/></g>
<g><path style="opacity:1" fill="#f9c84f" d="M 391.5,391.5 C 391.5,396.833 391.5,402.167 391.5,407.5C 388.833,407.5 386.167,407.5 383.5,407.5C 383.5,420.833 383.5,434.167 383.5,447.5C 364.833,447.5 346.167,447.5 327.5,447.5C 327.5,386.167 327.5,324.833 327.5,263.5C 346.167,263.5 364.833,263.5 383.5,263.5C 383.5,306.167 383.5,348.833 383.5,391.5C 386.167,391.5 388.833,391.5 391.5,391.5 Z"/></g>
<g><path style="opacity:1" fill="#000000" d="M 143.5,287.5 C 151.5,287.5 159.5,287.5 167.5,287.5C 167.5,292.833 167.5,298.167 167.5,303.5C 159.5,303.5 151.5,303.5 143.5,303.5C 143.5,298.167 143.5,292.833 143.5,287.5 Z"/></g>
<g><path style="opacity:1" fill="#000000" d="M 215.5,287.5 C 220.833,287.5 226.167,287.5 231.5,287.5C 231.5,292.833 231.5,298.167 231.5,303.5C 226.167,303.5 220.833,303.5 215.5,303.5C 215.5,298.167 215.5,292.833 215.5,287.5 Z"/></g>
<g><path style="opacity:1" fill="#000000" d="M 247.5,287.5 C 252.833,287.5 258.167,287.5 263.5,287.5C 263.5,292.833 263.5,298.167 263.5,303.5C 258.167,303.5 252.833,303.5 247.5,303.5C 247.5,298.167 247.5,292.833 247.5,287.5 Z"/></g>
<g><path style="opacity:1" fill="#000000" d="M 279.5,287.5 C 284.833,287.5 290.167,287.5 295.5,287.5C 295.5,292.833 295.5,298.167 295.5,303.5C 290.167,303.5 284.833,303.5 279.5,303.5C 279.5,298.167 279.5,292.833 279.5,287.5 Z"/></g>
<g><path style="opacity:1" fill="#000000" d="M 343.5,287.5 C 351.5,287.5 359.5,287.5 367.5,287.5C 367.5,292.833 367.5,298.167 367.5,303.5C 359.5,303.5 351.5,303.5 343.5,303.5C 343.5,298.167 343.5,292.833 343.5,287.5 Z"/></g>
<g><path style="opacity:1" fill="#000000" d="M 215.5,319.5 C 220.833,319.5 226.167,319.5 231.5,319.5C 231.5,324.833 231.5,330.167 231.5,335.5C 226.167,335.5 220.833,335.5 215.5,335.5C 215.5,330.167 215.5,324.833 215.5,319.5 Z"/></g>
<g><path style="opacity:1" fill="#000000" d="M 247.5,319.5 C 252.833,319.5 258.167,319.5 263.5,319.5C 263.5,324.833 263.5,330.167 263.5,335.5C 258.167,335.5 252.833,335.5 247.5,335.5C 247.5,330.167 247.5,324.833 247.5,319.5 Z"/></g>
<g><path style="opacity:1" fill="#000000" d="M 279.5,319.5 C 284.833,319.5 290.167,319.5 295.5,319.5C 295.5,324.833 295.5,330.167 295.5,335.5C 290.167,335.5 284.833,335.5 279.5,335.5C 279.5,330.167 279.5,324.833 279.5,319.5 Z"/></g>
<g><path style="opacity:1" fill="#000000" d="M 143.5,327.5 C 151.5,327.5 159.5,327.5 167.5,327.5C 167.5,332.833 167.5,338.167 167.5,343.5C 159.5,343.5 151.5,343.5 143.5,343.5C 143.5,338.167 143.5,332.833 143.5,327.5 Z"/></g>
<g><path style="opacity:1" fill="#000000" d="M 343.5,327.5 C 351.5,327.5 359.5,327.5 367.5,327.5C 367.5,332.833 367.5,338.167 367.5,343.5C 359.5,343.5 351.5,343.5 343.5,343.5C 343.5,338.167 343.5,332.833 343.5,327.5 Z"/></g>
<g><path style="opacity:1" fill="#000000" d="M 215.5,351.5 C 220.833,351.5 226.167,351.5 231.5,351.5C 231.5,356.833 231.5,362.167 231.5,367.5C 226.167,367.5 220.833,367.5 215.5,367.5C 215.5,362.167 215.5,356.833 215.5,351.5 Z"/></g>
<g><path style="opacity:1" fill="#000000" d="M 247.5,351.5 C 252.833,351.5 258.167,351.5 263.5,351.5C 263.5,356.833 263.5,362.167 263.5,367.5C 258.167,367.5 252.833,367.5 247.5,367.5C 247.5,362.167 247.5,356.833 247.5,351.5 Z"/></g>
<g><path style="opacity:1" fill="#000000" d="M 279.5,351.5 C 284.833,351.5 290.167,351.5 295.5,351.5C 295.5,356.833 295.5,362.167 295.5,367.5C 290.167,367.5 284.833,367.5 279.5,367.5C 279.5,362.167 279.5,356.833 279.5,351.5 Z"/></g>
<g><path style="opacity:1" fill="#000000" d="M 143.5,367.5 C 151.5,367.5 159.5,367.5 167.5,367.5C 167.5,372.833 167.5,378.167 167.5,383.5C 159.5,383.5 151.5,383.5 143.5,383.5C 143.5,378.167 143.5,372.833 143.5,367.5 Z"/></g>
<g><path style="opacity:1" fill="#000000" d="M 343.5,367.5 C 351.5,367.5 359.5,367.5 367.5,367.5C 367.5,372.833 367.5,378.167 367.5,383.5C 359.5,383.5 351.5,383.5 343.5,383.5C 343.5,378.167 343.5,372.833 343.5,367.5 Z"/></g>
<g><path style="opacity:1" fill="#000000" d="M 215.5,383.5 C 220.833,383.5 226.167,383.5 231.5,383.5C 231.5,388.833 231.5,394.167 231.5,399.5C 226.167,399.5 220.833,399.5 215.5,399.5C 215.5,394.167 215.5,388.833 215.5,383.5 Z"/></g>
<g><path style="opacity:1" fill="#000000" d="M 247.5,383.5 C 252.833,383.5 258.167,383.5 263.5,383.5C 263.5,388.833 263.5,394.167 263.5,399.5C 258.167,399.5 252.833,399.5 247.5,399.5C 247.5,394.167 247.5,388.833 247.5,383.5 Z"/></g>
<g><path style="opacity:1" fill="#000000" d="M 279.5,383.5 C 284.833,383.5 290.167,383.5 295.5,383.5C 295.5,388.833 295.5,394.167 295.5,399.5C 290.167,399.5 284.833,399.5 279.5,399.5C 279.5,394.167 279.5,388.833 279.5,383.5 Z"/></g>
<g><path style="opacity:1" fill="#78d6e9" d="M 42.5,407.5 C 51.1731,407.334 59.8397,407.5 68.5,408C 73.3333,410.167 76.8333,413.667 79,418.5C 79.4997,425.826 79.6663,433.159 79.5,440.5C 58.6314,445.042 47.9647,458.042 47.5,479.5C 42.1667,479.5 36.8333,479.5 31.5,479.5C 31.3334,459.164 31.5,438.831 32,418.5C 34.3566,413.645 37.8566,409.979 42.5,407.5 Z"/></g>
<g><path style="opacity:1" fill="#000000" d="M 143.5,407.5 C 151.5,407.5 159.5,407.5 167.5,407.5C 167.5,412.833 167.5,418.167 167.5,423.5C 159.5,423.5 151.5,423.5 143.5,423.5C 143.5,418.167 143.5,412.833 143.5,407.5 Z"/></g>
<g><path style="opacity:1" fill="#000000" d="M 343.5,407.5 C 351.5,407.5 359.5,407.5 367.5,407.5C 367.5,412.833 367.5,418.167 367.5,423.5C 359.5,423.5 351.5,423.5 343.5,423.5C 343.5,418.167 343.5,412.833 343.5,407.5 Z"/></g>
<g><path style="opacity:1" fill="#78d6e9" d="M 442.5,407.5 C 451.173,407.334 459.84,407.5 468.5,408C 473.333,410.167 476.833,413.667 479,418.5C 479.5,438.831 479.667,459.164 479.5,479.5C 474.167,479.5 468.833,479.5 463.5,479.5C 463.053,458.058 452.386,445.058 431.5,440.5C 431.334,433.159 431.5,425.826 432,418.5C 434.357,413.645 437.857,409.979 442.5,407.5 Z"/></g>
<g><path style="opacity:1" fill="#f9c84f" d="M 239.5,431.5 C 250.167,431.5 260.833,431.5 271.5,431.5C 271.5,447.5 271.5,463.5 271.5,479.5C 260.833,479.5 250.167,479.5 239.5,479.5C 239.5,463.5 239.5,447.5 239.5,431.5 Z"/></g>
<g><path style="opacity:1" fill="#77d5e8" d="M 79.5,455.5 C 94.3034,452.817 104.803,458.15 111,471.5C 111.497,474.146 111.664,476.813 111.5,479.5C 95.5,479.5 79.5,479.5 63.5,479.5C 63.6928,467.99 69.0261,459.99 79.5,455.5 Z"/></g>
<g><path style="opacity:1" fill="#77d5e8" d="M 415.5,455.5 C 430.303,452.817 440.803,458.15 447,471.5C 447.497,474.146 447.664,476.813 447.5,479.5C 431.5,479.5 415.5,479.5 399.5,479.5C 399.693,467.99 405.026,459.99 415.5,455.5 Z"/></g>
<g><path style="opacity:1" fill="#f95d3e" d="M 127.5,463.5 C 146.167,463.5 164.833,463.5 183.5,463.5C 183.5,468.833 183.5,474.167 183.5,479.5C 164.833,479.5 146.167,479.5 127.5,479.5C 127.5,474.167 127.5,468.833 127.5,463.5 Z"/></g>
<g><path style="opacity:1" fill="#f95d3e" d="M 327.5,463.5 C 346.167,463.5 364.833,463.5 383.5,463.5C 383.5,468.833 383.5,474.167 383.5,479.5C 364.833,479.5 346.167,479.5 327.5,479.5C 327.5,474.167 327.5,468.833 327.5,463.5 Z"/></g>
</svg>
