<?xml version="1.0" encoding="UTF-8"?>
<!DOCTYPE svg PUBLIC "-//W3C//DTD SVG 1.1//EN" "http://www.w3.org/Graphics/SVG/1.1/DTD/svg11.dtd">
<svg xmlns="http://www.w3.org/2000/svg" version="1.1" viewBox="0 0 554 554" width="512px" height="512px" style="shape-rendering:geometricPrecision; text-rendering:geometricPrecision; image-rendering:optimizeQuality; fill-rule:evenodd; clip-rule:evenodd" xmlns:xlink="http://www.w3.org/1999/xlink">
<g><path style="opacity:0.991" fill="#fecbcb" d="M 168.5,-0.5 C 176.5,-0.5 184.5,-0.5 192.5,-0.5C 212.827,3.49792 229.16,13.8313 241.5,30.5C 248.433,40.7868 252.933,52.1201 255,64.5C 255.5,103.832 255.667,143.165 255.5,182.5C 255.5,206.833 255.5,231.167 255.5,255.5C 245.5,255.5 235.5,255.5 225.5,255.5C 225.667,192.832 225.5,130.166 225,67.5C 217.375,41.2174 199.875,29.0507 172.5,31C 147.294,37.9202 135.127,54.4202 136,80.5C 137.369,88.971 139.202,97.3044 141.5,105.5C 115.818,99.5953 95.6515,107.262 81,128.5C 72.1467,147.12 74.3133,164.287 87.5,180C 100.025,180.371 112.025,183.038 123.5,188C 125.223,188.523 126.556,189.523 127.5,191C 122.885,199.731 117.885,208.231 112.5,216.5C 86.2619,204.936 65.4285,211.269 50,235.5C 46.9203,241.818 45.4203,248.485 45.5,255.5C 35.5,255.5 25.5,255.5 15.5,255.5C 15.4409,231.787 24.4409,212.287 42.5,197C 46.8415,194.308 50.8415,191.308 54.5,188C 37.504,150.981 43.8374,118.648 73.5,91C 82.6901,84.1553 92.8568,79.322 104,76.5C 107.238,35.274 128.738,9.60733 168.5,-0.5 Z"/></g>
<g><path style="opacity:1" fill="#ffb3b3" d="M 225.5,255.5 C 217.493,255.334 209.493,255.5 201.5,256C 203.329,257.113 204.163,258.613 204,260.5C 168.328,284.499 132.661,284.499 97,260.5C 96.8374,258.613 97.6707,257.113 99.5,256C 81.5031,255.5 63.5031,255.333 45.5,255.5C 45.4203,248.485 46.9203,241.818 50,235.5C 65.4285,211.269 86.2619,204.936 112.5,216.5C 117.885,208.231 122.885,199.731 127.5,191C 126.556,189.523 125.223,188.523 123.5,188C 112.025,183.038 100.025,180.371 87.5,180C 74.3133,164.287 72.1467,147.12 81,128.5C 95.6515,107.262 115.818,99.5953 141.5,105.5C 139.202,97.3044 137.369,88.971 136,80.5C 135.127,54.4202 147.294,37.9202 172.5,31C 199.875,29.0507 217.375,41.2174 225,67.5C 225.5,130.166 225.667,192.832 225.5,255.5 Z"/></g>
<g><path style="opacity:0.997" fill="#575e63" d="M 241.5,30.5 C 266.167,30.5 290.833,30.5 315.5,30.5C 315.5,52.5 315.5,74.5 315.5,96.5C 327.698,99.7632 339.365,104.43 350.5,110.5C 365.986,95.5141 381.319,80.3474 396.5,65C 397.5,64.3333 398.5,64.3333 399.5,65C 420.541,85.707 441.208,106.707 461.5,128C 446.361,143.973 431.028,159.807 415.5,175.5C 421.57,186.635 426.237,198.302 429.5,210.5C 451.5,210.5 473.5,210.5 495.5,210.5C 495.5,225.5 495.5,240.5 495.5,255.5C 445.095,255.172 394.762,255.505 344.5,256.5C 342.943,218.446 323.943,193.946 287.5,183C 276.786,180.436 266.119,180.27 255.5,182.5C 255.667,143.165 255.5,103.832 255,64.5C 252.933,52.1201 248.433,40.7868 241.5,30.5 Z"/></g>
<g><path style="opacity:1" fill="#ffcbcb" d="M 175.5,97.5 C 176.822,97.33 177.989,97.6634 179,98.5C 199.491,130.334 200.825,163 183,196.5C 181.302,199.19 179.302,201.523 177,203.5C 168.789,198.49 161.289,192.657 154.5,186C 169.458,161.932 169.125,138.098 153.5,114.5C 160.902,108.813 168.235,103.147 175.5,97.5 Z"/></g>
<g><path style="opacity:1" fill="#ffcbcb" d="M 113.5,236.5 C 120.21,240.186 127.21,243.353 134.5,246C 153.212,250.153 170.545,246.986 186.5,236.5C 191.167,242.5 195.833,248.5 200.5,254.5C 167.172,255.667 133.838,255.833 100.5,255C 105.222,249.038 109.555,242.871 113.5,236.5 Z"/></g>
<g><path style="opacity:1" fill="#feb3b3" d="M 15.5,255.5 C 25.5,255.5 35.5,255.5 45.5,255.5C 47.437,277.927 59.1037,292.427 80.5,299C 91.6833,300.746 102.35,299.246 112.5,294.5C 118.079,302.598 123.079,311.098 127.5,320C 119.763,325.527 111.097,328.86 101.5,330C 96.8333,330.333 92.1667,330.667 87.5,331C 70.8678,352.746 71.8678,373.746 90.5,394C 105.112,404.568 121.445,408.401 139.5,405.5C 138.336,415.316 137.336,425.149 136.5,435C 137.194,460.033 149.861,475.033 174.5,480C 197.932,481.211 214.099,471.044 223,449.5C 223.945,445.886 224.612,442.219 225,438.5C 225.5,377.501 225.667,316.501 225.5,255.5C 235.5,255.5 245.5,255.5 255.5,255.5C 255.5,279.833 255.5,304.167 255.5,328.5C 255.667,367.835 255.5,407.168 255,446.5C 252.933,458.88 248.433,470.213 241.5,480.5C 229.16,497.169 212.827,507.502 192.5,511.5C 184.5,511.5 176.5,511.5 168.5,511.5C 129.282,501.937 107.948,476.937 104.5,436.5C 104.608,435.558 104.941,434.725 105.5,434C 67.3781,424.24 47.3781,399.74 45.5,360.5C 45.2755,347.231 48.2755,334.731 54.5,323C 42.7337,315.234 32.9004,305.4 25,293.5C 18.3805,281.689 15.2138,269.022 15.5,255.5 Z"/></g>
<g><path style="opacity:1" fill="#ff8080" d="M 45.5,255.5 C 63.5031,255.333 81.5031,255.5 99.5,256C 97.6707,257.113 96.8374,258.613 97,260.5C 132.661,284.499 168.328,284.499 204,260.5C 204.163,258.613 203.329,257.113 201.5,256C 209.493,255.5 217.493,255.334 225.5,255.5C 225.667,316.501 225.5,377.501 225,438.5C 224.612,442.219 223.945,445.886 223,449.5C 214.099,471.044 197.932,481.211 174.5,480C 149.861,475.033 137.194,460.033 136.5,435C 137.336,425.149 138.336,415.316 139.5,405.5C 121.445,408.401 105.112,404.568 90.5,394C 71.8678,373.746 70.8678,352.746 87.5,331C 92.1667,330.667 96.8333,330.333 101.5,330C 111.097,328.86 119.763,325.527 127.5,320C 123.079,311.098 118.079,302.598 112.5,294.5C 102.35,299.246 91.6833,300.746 80.5,299C 59.1037,292.427 47.437,277.927 45.5,255.5 Z"/></g>
<g><path style="opacity:1" fill="#32393f" d="M 495.5,255.5 C 495.5,270.5 495.5,285.5 495.5,300.5C 473.5,300.5 451.5,300.5 429.5,300.5C 426.237,312.698 421.57,324.365 415.5,335.5C 430.486,350.986 445.653,366.319 461,381.5C 461.667,382.5 461.667,383.5 461,384.5C 440.293,405.541 419.293,426.208 398,446.5C 382.027,431.361 366.193,416.028 350.5,400.5C 339.365,406.57 327.698,411.237 315.5,414.5C 315.5,436.5 315.5,458.5 315.5,480.5C 290.833,480.5 266.167,480.5 241.5,480.5C 248.433,470.213 252.933,458.88 255,446.5C 255.5,407.168 255.667,367.835 255.5,328.5C 293.747,333.461 321.58,318.795 339,284.5C 342.95,275.584 344.783,266.251 344.5,256.5C 394.762,255.505 445.095,255.172 495.5,255.5 Z"/></g>
<g><path style="opacity:1" fill="#ffb2b2" d="M 175.5,307.5 C 176.822,307.33 177.989,307.663 179,308.5C 199.517,340.327 200.85,372.994 183,406.5C 181.302,409.19 179.302,411.523 177,413.5C 168.789,408.49 161.289,402.657 154.5,396C 169.441,372.04 169.107,348.374 153.5,325C 160.733,318.922 168.066,313.089 175.5,307.5 Z"/></g>
</svg>
